<svg width="17" height="31" viewBox="0 0 17 31" fill="none" xmlns="http://www.w3.org/2000/svg">
<path fill-rule="evenodd" clip-rule="evenodd" d="M0.845205 0.346182C0.73547 0.45564 0.648408 0.585671 0.589005 0.728828C0.529601 0.871985 0.499024 1.02545 0.499024 1.18045C0.499024 1.33544 0.529601 1.48891 0.589005 1.63207C0.648408 1.77522 0.73547 1.90525 0.845205 2.01471L14.1534 15.3205L0.845205 28.6263C0.623944 28.8476 0.499642 29.1477 0.499642 29.4606C0.499642 29.7735 0.623944 30.0736 0.845205 30.2949C1.06647 30.5161 1.36656 30.6404 1.67947 30.6404C1.99238 30.6404 2.29247 30.5161 2.51374 30.2949L16.6538 16.1548C16.7636 16.0453 16.8506 15.9153 16.91 15.7721C16.9694 15.629 17 15.4755 17 15.3205C17 15.1655 16.9694 15.0121 16.91 14.8689C16.8506 14.7258 16.7636 14.5957 16.6538 14.4863L2.51374 0.346182C2.40428 0.236447 2.27425 0.149385 2.13109 0.0899811C1.98793 0.0305776 1.83446 0 1.67947 0C1.52448 0 1.37101 0.0305776 1.22785 0.0899811C1.08469 0.149385 0.954662 0.236447 0.845205 0.346182V0.346182Z" fill="white"/>
</svg>
