<svg width="17" height="31" viewBox="0 0 17 31" fill="none" xmlns="http://www.w3.org/2000/svg">
<path fill-rule="evenodd" clip-rule="evenodd" d="M16.1548 0.346182C16.2645 0.45564 16.3516 0.585671 16.411 0.728828C16.4704 0.871985 16.501 1.02545 16.501 1.18045C16.501 1.33544 16.4704 1.48891 16.411 1.63207C16.3516 1.77522 16.2645 1.90525 16.1548 2.01471L2.84662 15.3205L16.1548 28.6263C16.3761 28.8476 16.5004 29.1477 16.5004 29.4606C16.5004 29.7735 16.3761 30.0736 16.1548 30.2949C15.9335 30.5161 15.6334 30.6404 15.3205 30.6404C15.0076 30.6404 14.7075 30.5161 14.4863 30.2949L0.346181 16.1548C0.236446 16.0453 0.149384 15.9153 0.08998 15.7721C0.0305765 15.629 0 15.4755 0 15.3205C0 15.1655 0.0305765 15.0121 0.08998 14.8689C0.149384 14.7258 0.236446 14.5957 0.346181 14.4863L14.4863 0.346182C14.5957 0.236447 14.7258 0.149385 14.8689 0.0899811C15.0121 0.0305776 15.1655 0 15.3205 0C15.4755 0 15.629 0.0305776 15.7721 0.0899811C15.9153 0.149385 16.0453 0.236447 16.1548 0.346182V0.346182Z" fill="white"/>
</svg>
