<svg width="27" height="38" viewBox="0 0 27 38" fill="none" xmlns="http://www.w3.org/2000/svg">
<path d="M25.0727 14.5956L25.167 14.8251C25.02 14.8855 24.8625 14.9166 24.7035 14.9166C24.5445 14.9166 24.387 14.8855 24.24 14.8251L24.335 14.5939L24.24 14.8251C24.0931 14.7647 23.9595 14.6762 23.8469 14.5645L25.0727 14.5956ZM25.0727 14.5956L25.167 14.8251C25.314 14.7647 25.4477 14.6761 25.5603 14.5643L25.3842 14.3869L25.5599 14.5647C25.6728 14.4532 25.7625 14.3205 25.8238 14.1743C25.8851 14.0281 25.9166 13.8712 25.9166 13.7127C25.9166 13.5543 25.8851 13.3974 25.8238 13.2512C25.7625 13.105 25.6728 12.9723 25.5599 12.8608L14.0232 1.43557C13.9106 1.32373 13.7769 1.23513 13.6299 1.17472C13.4829 1.11431 13.3254 1.08325 13.1664 1.08325C13.0074 1.08325 12.8499 1.11431 12.7029 1.17472C12.5559 1.23513 12.4222 1.32373 12.3095 1.43557L0.772657 12.861C0.544977 13.0865 0.416624 13.3928 0.416624 13.7127C0.416624 14.0327 0.544977 14.339 0.772657 14.5645C1.00025 14.7899 1.30843 14.9161 1.62926 14.9161C1.9501 14.9161 2.25827 14.7899 2.48587 14.5645L2.48589 14.5645L13.1664 3.98529L23.8467 14.5643L25.0727 14.5956Z" fill="#232C66" stroke="#232C66" stroke-width="0.5"/>
<path d="M13.1665 3V36.3333" stroke="#232C66" stroke-width="3" stroke-linecap="round"/>
</svg>
