<svg width="21" height="21" viewBox="0 0 21 21" fill="none" xmlns="http://www.w3.org/2000/svg">
<path d="M-2.1312e-05 2.61979C-2.1312e-05 2.01777 0.23913 1.44041 0.664819 1.01472C1.09051 0.589031 1.66787 0.349882 2.26988 0.349882H8.75533C9.22445 0.348021 9.68933 0.438717 10.1234 0.616776C10.5574 0.794836 10.952 1.05676 11.2847 1.38755L19.2618 9.36465C19.5951 9.69613 19.8596 10.0902 20.0402 10.5243C20.2207 10.9584 20.3136 11.4239 20.3136 11.894C20.3136 12.3641 20.2207 12.8296 20.0402 13.2636C19.8596 13.6977 19.5951 14.0918 19.2618 14.4233L14.0734 19.6117C13.3997 20.277 12.491 20.6501 11.5441 20.6501C10.5972 20.6501 9.68844 20.277 9.01475 19.6117L1.03765 11.6346C0.70686 11.3019 0.444933 10.9073 0.266874 10.4733C0.0888145 10.0392 -0.00188183 9.57435 -2.1312e-05 9.10523V2.61979ZM1.94561 9.10523C1.94302 9.31788 1.98496 9.52871 2.06873 9.72418C2.1525 9.91964 2.27625 10.0954 2.43202 10.2402L10.4091 18.2173C10.5547 18.3724 10.7305 18.496 10.9257 18.5805C11.1209 18.665 11.3314 18.7086 11.5441 18.7086C11.7568 18.7086 11.9672 18.665 12.1624 18.5805C12.3576 18.496 12.5335 18.3724 12.679 18.2173L17.8674 13.0289C18.0225 12.8834 18.1461 12.7075 18.2306 12.5123C18.3151 12.3171 18.3587 12.1067 18.3587 11.894C18.3587 11.6813 18.3151 11.4708 18.2306 11.2756C18.1461 11.0804 18.0225 10.9046 17.8674 10.759L9.89028 2.78192C9.74551 2.62615 9.56974 2.5024 9.37427 2.41863C9.17881 2.33486 8.96798 2.29292 8.75533 2.29552H2.26988C2.22604 2.2903 2.18159 2.2951 2.13988 2.30955C2.09816 2.32401 2.06027 2.34773 2.02905 2.37895C1.99783 2.41017 1.9741 2.44806 1.95965 2.48978C1.9452 2.5315 1.9404 2.57595 1.94561 2.61979V9.10523Z" fill="#000A4E"/>
<path d="M6.90701 4.11136C7.5355 4.10873 8.15066 4.29253 8.6747 4.63951C9.19874 4.98649 9.60813 5.48107 9.85109 6.06071C10.0941 6.64035 10.1597 7.27902 10.0397 7.89596C9.91968 8.5129 9.61943 9.0804 9.17691 9.5267C8.5792 10.1244 7.76852 10.4602 6.92322 10.4602C6.50467 10.4602 6.09022 10.3778 5.70353 10.2176C5.31684 10.0574 4.96549 9.82266 4.66953 9.5267C4.37357 9.23074 4.1388 8.87939 3.97863 8.4927C3.81846 8.10601 3.73602 7.69156 3.73602 7.27301C3.73602 6.85446 3.81846 6.44001 3.97863 6.05332C4.1388 5.66663 4.37357 5.31528 4.66953 5.01932C5.26877 4.43701 6.07144 4.11129 6.90701 4.11136V4.11136ZM6.0639 8.13233C6.23775 8.29552 6.45522 8.40476 6.68993 8.44681C6.92463 8.48885 7.1665 8.4619 7.38619 8.36922C7.60588 8.27654 7.79397 8.1221 7.92763 7.92465C8.0613 7.72719 8.13481 7.4952 8.13924 7.2568C8.13966 7.09948 8.10828 6.9437 8.04698 6.79882C7.98569 6.65394 7.89574 6.52294 7.78254 6.41369C7.67367 6.29115 7.53811 6.19525 7.3863 6.13341C7.2345 6.07156 7.07052 6.04542 6.90701 6.05699C6.59138 6.06519 6.29095 6.19423 6.0677 6.41749C5.84444 6.64074 5.7154 6.94117 5.7072 7.2568C5.69563 7.42031 5.72177 7.58429 5.78362 7.73609C5.84546 7.8879 5.94136 8.02346 6.0639 8.13233V8.13233Z" fill="#000A4E"/>
</svg>
